<?xml version="1.0" encoding="UTF-8"?>
<svg width="48px" height="48px" viewBox="0 0 48 48" version="1.1" xmlns="http://www.w3.org/2000/svg" xmlns:xlink="http://www.w3.org/1999/xlink">
    <!-- Generator: Sketch 52.2 (67145) - http://www.bohemiancoding.com/sketch -->
    <title>应用icon</title>
    <desc>Created with Sketch.</desc>
    <defs>
        <linearGradient x1="50%" y1="0.99349711%" x2="50%" y2="100%" id="linearGradient-1">
            <stop stop-color="#62BEFF" offset="0%"></stop>
            <stop stop-color="#38ADFF" offset="100%"></stop>
        </linearGradient>
    </defs>
    <g id="应用icon" stroke="none" stroke-width="1" fill="none" fill-rule="evenodd">
        <g id="Group-8" fill-rule="nonzero">
            <path d="M10.2555408,-4.14336123e-16 L37.7444592,4.14336123e-16 C41.3105342,-2.4074122e-16 42.6036791,0.371302445 43.9073828,1.06853082 C45.2110865,1.76575919 46.2342408,2.78891348 46.9314692,4.09261719 C47.6286976,5.39632089 48,6.68946584 48,10.2555408 L48,37.7444592 C48,41.3105342 47.6286976,42.6036791 46.9314692,43.9073828 C46.2342408,45.2110865 45.2110865,46.2342408 43.9073828,46.9314692 C42.6036791,47.6286976 41.3105342,48 37.7444592,48 L10.2555408,48 C6.68946584,48 5.39632089,47.6286976 4.09261719,46.9314692 C2.78891348,46.2342408 1.76575919,45.2110865 1.06853082,43.9073828 C0.371302445,42.6036791 1.60494146e-16,41.3105342 -2.76224082e-16,37.7444592 L2.76224082e-16,10.2555408 C-1.60494146e-16,6.68946584 0.371302445,5.39632089 1.06853082,4.09261719 C1.76575919,2.78891348 2.78891348,1.76575919 4.09261719,1.06853082 C5.39632089,0.371302445 6.68946584,2.4074122e-16 10.2555408,-4.14336123e-16 Z" id="Rectangle-23" fill="url(#linearGradient-1)"></path>
            <path d="M12.5638852,10 L19.4361148,10 C20.3276335,10 20.6509198,10.0928256 20.9768457,10.2671327 C21.3027716,10.4414398 21.5585602,10.6972284 21.7328673,11.0231543 C21.9071744,11.3490802 22,11.6723665 22,12.5638852 L22,19.4361148 C22,20.3276335 21.9071744,20.6509198 21.7328673,20.9768457 C21.5585602,21.3027716 21.3027716,21.5585602 20.9768457,21.7328673 C20.6509198,21.9071744 20.3276335,22 19.4361148,22 L12.5638852,22 C11.6723665,22 11.3490802,21.9071744 11.0231543,21.7328673 C10.6972284,21.5585602 10.4414398,21.3027716 10.2671327,20.9768457 C10.0928256,20.6509198 10,20.3276335 10,19.4361148 L10,12.5638852 C10,11.6723665 10.0928256,11.3490802 10.2671327,11.0231543 C10.4414398,10.6972284 10.6972284,10.4414398 11.0231543,10.2671327 C11.3490802,10.0928256 11.6723665,10 12.5638852,10 Z" id="Rectangle" fill="#FFFFFF"></path>
            <path d="M12.5638852,26 L19.4361148,26 C20.3276335,26 20.6509198,26.0928256 20.9768457,26.2671327 C21.3027716,26.4414398 21.5585602,26.6972284 21.7328673,27.0231543 C21.9071744,27.3490802 22,27.6723665 22,28.5638852 L22,35.4361148 C22,36.3276335 21.9071744,36.6509198 21.7328673,36.9768457 C21.5585602,37.3027716 21.3027716,37.5585602 20.9768457,37.7328673 C20.6509198,37.9071744 20.3276335,38 19.4361148,38 L12.5638852,38 C11.6723665,38 11.3490802,37.9071744 11.0231543,37.7328673 C10.6972284,37.5585602 10.4414398,37.3027716 10.2671327,36.9768457 C10.0928256,36.6509198 10,36.3276335 10,35.4361148 L10,28.5638852 C10,27.6723665 10.0928256,27.3490802 10.2671327,27.0231543 C10.4414398,26.6972284 10.6972284,26.4414398 11.0231543,26.2671327 C11.3490802,26.0928256 11.6723665,26 12.5638852,26 Z" id="Rectangle-Copy-2" fill="#FFFFFF"></path>
            <path d="M32,10 L32,10 C35.3137085,10 38,12.6862915 38,16 L38,16 C38,19.3137085 35.3137085,22 32,22 L32,22 C28.6862915,22 26,19.3137085 26,16 L26,16 C26,12.6862915 28.6862915,10 32,10 Z" id="Rectangle-Copy" fill="#FFFFFF"></path>
            <path d="M28.5638852,26 L35.4361148,26 C36.3276335,26 36.6509198,26.0928256 36.9768457,26.2671327 C37.3027716,26.4414398 37.5585602,26.6972284 37.7328673,27.0231543 C37.9071744,27.3490802 38,27.6723665 38,28.5638852 L38,35.4361148 C38,36.3276335 37.9071744,36.6509198 37.7328673,36.9768457 C37.5585602,37.3027716 37.3027716,37.5585602 36.9768457,37.7328673 C36.6509198,37.9071744 36.3276335,38 35.4361148,38 L28.5638852,38 C27.6723665,38 27.3490802,37.9071744 27.0231543,37.7328673 C26.6972284,37.5585602 26.4414398,37.3027716 26.2671327,36.9768457 C26.0928256,36.6509198 26,36.3276335 26,35.4361148 L26,28.5638852 C26,27.6723665 26.0928256,27.3490802 26.2671327,27.0231543 C26.4414398,26.6972284 26.6972284,26.4414398 27.0231543,26.2671327 C27.3490802,26.0928256 27.6723665,26 28.5638852,26 Z" id="Rectangle-Copy-3" fill="#FFFFFF"></path>
        </g>
    </g>
</svg>